<svg width="16" height="16" viewBox="0 0 4.233 4.233" xmlns="http://www.w3.org/2000/svg"><rect style="fill:#000;stroke-width:.24153;stroke-dasharray:.724591,.24153;stroke-opacity:.302119" width="1.102" height="3.704" x=".265" y=".265" rx=".441" ry=".529"/><rect style="fill:#000;stroke-width:.295813;stroke-dasharray:.887439,.295813;stroke-opacity:.302119" width=".661" height="3.704" x=".926" y=".265" rx="0" ry="0"/><path style="fill:#000;stroke-width:.264583;stroke-dasharray:.79375,.264583;stroke-opacity:.302119" d="M2.646.265h.529v.529h-.529zm.529.529h.529v.529h-.529z"/><path style="fill:#000;stroke-width:.187088;stroke-dasharray:.561265,.187088;stroke-opacity:.302119" d="M3.704 1.323h.265v.529h-.265z"/><path style="fill:#000;stroke-width:.264583;stroke-dasharray:.79375,.264583;stroke-opacity:.302119" d="M2.646 1.323h.529v.529h-.529zm0 1.058h.529v.529h-.529zm.529.529h.529v.529h-.529z"/><path style="fill:#000;stroke-width:.187088;stroke-dasharray:.561266,.187088;stroke-opacity:.302119" d="M3.704 2.381h.265v.529h-.265z"/><path style="fill:#000;stroke-width:.264583;stroke-dasharray:.79375,.264583;stroke-opacity:.302119" d="M2.646 3.44h.529v.529h-.529zm.529-1.588h.529v.529h-.529zM1.852 0h.529v4.233h-.529z"/><path style="fill:#000;fill-opacity:1;stroke-width:.264583;stroke-dasharray:.79375,.264583;stroke-opacity:.302119" d="M3.969 3.44a.541.541 0 0 1-.265.485V3.44Zm0-2.646c0-.218-.109-.404-.265-.485v.485Z"/></svg>
